<?xml version="1.0" encoding="UTF-8"?>
<svg width="600" height="215" version="1.1" xmlns="http://www.w3.org/2000/svg" xmlns:xlink="http://www.w3.org/1999/xlink">
 <defs>
  <linearGradient id="b" x1="83.569" x2="44.888" y1="102.43" y2="103.86" gradientTransform="matrix(1.0393,0,0,1.0393,29.657,-82.79)" gradientUnits="userSpaceOnUse">
   <stop stop-color="#2df9c3" offset="0"/>
   <stop stop-color="#1b9d88" offset="1"/>
  </linearGradient>
 </defs>
 <path id="a" d="m60.66 42.21c13.885-17.792 39.523-34.815 67.282-30.773 27.509 4.0012 46.05 27.707 54.312 48.461-27.748-28.996-85.241-37.881-121.59-17.678z" fill="url(#b)"/>
 <use transform="rotate(72.007 103.76 106.5)" xlink:href="#a"/>
 <use transform="rotate(144 103.76 106.5)" xlink:href="#a"/>
 <use transform="rotate(216.01 103.76 106.51)" xlink:href="#a"/>
 <use transform="rotate(-72 103.77 106.49)" xlink:href="#a"/>
 <path transform="matrix(.25726 0 0 .25726 258.9 28.53)" d="m833.48 562.34v-187.06c0-1.9 1.54-3.45 3.45-3.45h27.51c1.91 0 3.08 1.16 3.08 3.45v28.63h1.54c13.38-22.16 35.15-33.99 62.71-33.99 44.71 0 68.82 29.38 68.82 85.9v106.52c0 2.28-1.17 3.44-3.08 3.44h-29.05c-1.91 0-3.45-1.16-3.45-3.44v-106.52c0-38.18-14.92-55.73-47.04-55.73s-48.95 18.72-48.95 55.73v106.52c0 2.28-1.16 3.44-3.08 3.44h-29.05c-2.29 0-3.45-1.16-3.45-3.44h0.05zm-210.64-93.16c0-59.17 38.98-99.26 95.95-99.26s96.32 40.08 96.32 99.26-38.98 98.51-96.32 98.51-95.95-39.71-95.95-98.51zm95.95 69.46c36.69 0 60-26.35 60-69.46s-22.94-70.25-60-70.25-59.63 26.72-59.63 70.25 22.57 69.46 59.63 69.46zm-156.8 23.7v-187.05c0-1.91 1.54-3.45 3.45-3.45h29.05c1.91 0 3.08 1.16 3.08 3.45v187.06c0 2.28-1.17 3.45-3.08 3.45h-29.05c-1.91 0-3.45-1.54-3.45-3.45zm-176.6-53.86c-0.37-2.65 1.17-3.82 3.08-3.82h27.93c2.28 0 3.08 1.16 3.45 3.07 4.2 22.53 17.95 32.45 44.34 32.45 22.57 0 37.07-10.71 37.07-27.89 0-15.27-8.39-22.16-32.87-26.72l-22.94-4.19c-38.6-7.26-55.81-24.07-55.81-55.73 0-33.61 27.13-55.73 69.56-55.73s67.65 19.83 71.89 54.19c0.37 2.65-0.75 3.82-2.66 3.82h-28.3c-2.28 0-3.08-1.54-3.45-3.07-4.2-19.09-15.67-27.47-37.48-27.47s-34.41 9.54-34.41 26.35c0 14.52 6.9 22.53 30.96 27.09l24.85 4.56c42.8 8.01 55.44 22.9 55.44 54.98 0 36.64-26.02 57.26-71.89 57.26s-74.55-21-78.75-59.17zm-189.29-24.02v-109.17c0-1.9 1.54-3.45 3.45-3.45h29.05c1.91 0 3.08 1.16 3.08 3.45v113.78c0 32.08 17.2 49.63 47.04 49.63s47.42-17.18 47.42-49.63v-113.78c0-2.28 1.54-3.45 3.45-3.45h29.05c1.91 0 3.08 1.16 3.08 3.45v109.17c0 54.98-27.93 83.24-82.94 83.24s-82.57-28.26-82.57-83.24h-0.09zm-196.1 77.88v-260.34c0-1.9 1.54-3.45 3.45-3.45h162.49c1.91 0 3.45 1.16 3.45 3.45v24.81c0 1.7-1.38 3.07-3.07 3.07h-129.63v88.55h121.59c1.91 0 3.45 1.54 3.45 3.45v24.81c0 1.9-1.54 3.45-3.45 3.45h-121.59v112.24c0 2.28-1.17 3.45-3.08 3.45h-30.16c-1.9 0-3.45-1.54-3.45-3.45v-0.05zm1256.7-295.32c-1.88-0.01-3.41-1.53-3.43-3.41l-0.22-21.19v-8.8h-1.53c-13.01 22.16-38.61 35.52-66.91 35.52-51.98 0-85.65-38.55-85.65-98.51h-0.05c0-60.34 33.66-99.26 85.65-99.26 27.14 0 51.62 13.36 65.37 35.89h1.53v-30.53c0-1.91 1.55-3.45 3.45-3.45h29.05c1.91 0 3.08 1.16 3.08 3.45v162.25l-0.13 24.8c0 1.91-1.57 3.45-3.47 3.43l-26.76-0.18zm-62.58-26.94c36.33 0 58.89-26.72 58.89-69.46s-22.93-70.25-58.89-70.25-58.88 26.72-58.88 70.25 22.57 69.46 58.88 69.46zm-406.4 23.7v-187.06c0-1.9 1.54-3.45 3.45-3.45h27.51c1.91 0 3.08 1.16 3.08 3.45v28.63h1.54c13.01-22.16 33.66-33.99 60.42-33.99s46.62 11.83 57.35 35.1h1.54c15.29-22.91 39.4-35.1 68.07-35.1 43.22 0 66.9 29.38 66.9 85.89v106.51c0 1.91-1.54 3.45-3.45 3.45h-29.05c-1.91 0-3.08-1.16-3.08-3.44v-106.52c0-38.18-14.55-55.73-45.5-55.73s-45.88 18.72-45.88 55.73v106.52c0 2.28-1.54 3.44-3.45 3.44h-29.05c-1.91 0-3.45-1.16-3.45-3.44v-106.52c0-38.18-14.13-55.73-44.71-55.73s-46.62 18.72-46.62 55.73v106.52c0 2.28-1.17 3.44-3.08 3.44h-29.05c-2.28 0-3.45-1.16-3.45-3.44h-0.05zm-69.57-0.47v-187.05c0-1.9 1.54-3.45 3.45-3.45h29.05c1.91 0 3.08 1.16 3.08 3.45v187.06c0 2.28-1.17 3.45-3.08 3.45h-29.05c-1.91 0-3.45-1.55-3.45-3.45zm-211.2 0.1 71.1-95.07v-1.16l-65.74-90.08c-1.54-1.91-0.75-3.82 1.91-3.82h34.03c1.54 0 2.66 0.37 3.82 1.91l46.62 66.43h1.16l46.62-66.43c1.17-1.54 2.28-1.91 3.82-1.91h32.87c2.29 0 3.45 1.91 1.91 3.82l-65.36 87.8v1.54l70.73 96.98c1.54 1.91 0.75 3.82-1.91 3.82h-34.03c-1.54 0-2.66-0.37-3.82-1.91l-51.61-74.07h-1.54l-51.99 74.07c-1.16 1.54-2.66 1.91-4.2 1.91h-32.5c-2.66 0-3.82-1.91-1.91-3.82zm-196.51-92.79c0-59.17 38.98-99.26 95.95-99.26s96.32 40.08 96.32 99.26-38.98 98.51-96.32 98.51-95.95-39.71-95.95-98.51zm95.95 69.46c36.69 0 60-26.35 60-69.46s-22.94-70.25-60-70.25-59.63 26.72-59.63 70.25 22.57 69.46 59.63 69.46zm-208.32 23.7v-143.53c0-30.54 16.46-46.97 47.04-46.97h57.72c1.91 0 3.45 1.16 3.45 3.45v23.65c0 1.7-1.38 3.07-3.07 3.07h-69.57v160.34c0 2.28-1.17 3.45-3.08 3.45h-29.05c-1.91 0-3.45-1.54-3.45-3.45zm-198.05 0v-260.33c0-1.91 1.54-3.45 3.45-3.45h86.39c60.8 0 94.41 30.17 94.41 84.36s-33.66 84.73-94.41 84.73h-53.15v94.69c0 2.28-1.17 3.44-3.08 3.44h-30.16c-1.91 0-3.45-1.54-3.45-3.45zm89.47-126.35c39.4 0 57.72-17.18 57.72-53.07s-18.37-53.07-57.72-53.07h-52.78v106.15h52.78z" fill="#00122b"/>
</svg>
