<?xml version="1.0" encoding="utf-8"?>
<!-- Generator: Adobe Illustrator 28.0.0, SVG Export Plug-In . SVG Version: 6.00 Build 0)  -->
<svg version="1.1" xmlns="http://www.w3.org/2000/svg" xmlns:xlink="http://www.w3.org/1999/xlink" x="0px" y="0px"
	 viewBox="0 0 4407.19 731.75" style="enable-background:new 0 0 4407.19 731.75;" xml:space="preserve">
<style type="text/css">
	.st0{fill:#750014;}
</style>
<g id="Background">
</g>
<g id="Artwork">
	<g>
		<g>
			<path class="st0" d="M720,725.46h160v-480H720V725.46z M960,165.46h400v-160H960V165.46z M720,5.46h160v160H720V5.46z
				 M480,725.46h160v-720H480V725.46z M240,565.46h160v-560H240V565.46z M0,725.46h160v-720H0V725.46z M960,725.46h160v-480H960
				V725.46z"/>
			<g>
				<path class="st0" d="M1504.97,648.25c0-42.8,27.27-69.65,66.29-89.37c-17.2-20.98-25.17-37.76-25.17-62.1
					c0-39.02,31.05-69.23,77.62-69.23c45.32,0,78.46,27.69,78.46,68.81c0,36.92-21.4,55.39-53.71,72.17l39.86,51.61
					c5.88-15.11,10.07-32.31,11.75-48.67h50.77c-2.52,33.57-12.17,65.88-28.53,92.73l47.41,61.26h-69.65l-15.52-19.72
					c-22.24,16.36-49.51,26.01-79.72,26.01C1538.96,731.75,1504.97,695.25,1504.97,648.25z M1654.76,667.14l-54.97-71.75
					c-25.59,15.53-34.41,32.31-34.41,51.19c0,22.66,18.04,38.18,41.54,38.18C1624.97,684.76,1641.34,678.46,1654.76,667.14z
					 M1622.88,536.23c19.72-11.75,25.17-24.76,25.17-39.02c0-14.69-10.91-23.92-23.5-23.92c-13.43,0-23.5,10.07-23.5,24.34
					C1601.06,511.05,1610.29,524.06,1622.88,536.23z"/>
				<path class="st0" d="M1865.81,425.46h214.83v51.61h-153.99v72.17h130.49v52.03h-130.49v124.2h-60.84V425.46z"/>
				<path class="st0" d="M2233.78,725.46v-25.18h-1.26c-14.69,19.72-31.47,31.05-61.68,31.05c-47.83,0-74.69-30.63-74.69-77.62
					v-143.5h56.64v133.85c0,25.18,11.33,39.02,35.67,39.02c26.85,0,43.22-20.14,43.22-48.67v-124.2h57.06v215.25H2233.78z"/>
				<path class="st0" d="M2312.24,655.81h52.87c3.78,24.76,21.4,35.67,46.99,35.67c25.17,0,39.44-9.65,39.44-24.76
					c0-20.56-27.27-22.66-56.64-28.53c-38.6-7.55-76.36-18.04-76.36-65.04c0-46.57,38.6-68.81,87.69-68.81
					c56.64,0,88.11,28.11,92.31,71.33h-51.61c-2.52-23.08-17.2-31.47-41.54-31.47c-22.24,0-36.92,8.39-36.92,23.92
					c0,18.46,28.53,20.14,59.16,26.43c36.08,7.55,75.95,17.62,75.95,67.97c0,43.22-36.92,69.23-90.63,69.23
					C2350.42,731.75,2315.59,701.54,2312.24,655.81z"/>
				<path class="st0" d="M2529.16,425.46h57.06v51.19h-57.06V425.46z M2529.16,510.21h57.06v215.25h-57.06V510.21z"/>
				<path class="st0" d="M2612.65,618.04c0-64.2,45.74-113.71,112.45-113.71c66.71,0,112.45,49.51,112.45,113.71
					c0,64.2-45.73,113.71-112.45,113.71C2658.39,731.75,2612.65,682.24,2612.65,618.04z M2779.65,618.04
					c0-41.96-19.72-70.49-54.55-70.49c-35.25,0-54.55,28.53-54.55,70.49c0,41.96,19.3,70.07,54.55,70.07
					C2759.93,688.12,2779.65,660,2779.65,618.04z"/>
				<path class="st0" d="M2919.78,539.58h1.26c14.69-23.08,34.41-35.25,63.78-35.25c44.48,0,74.27,33.57,74.27,80.56v140.56h-57.06
					V593.29c0-23.08-13.43-39.44-37.34-39.44c-25.17,0-43.64,20.14-43.64,49.51v122.1h-57.06V510.21h55.8V539.58z"/>
				<path class="st0" d="M3156.42,576.51c0-88.95,55.38-156.93,143.92-156.93c73.85,0,117.48,44.06,123.78,101.12h-60.42
					c-5.46-30.21-28.11-49.93-63.36-49.93c-55.39,0-81.82,46.16-81.82,105.74c0,61.26,31.89,105.32,82.24,105.32
					c35.66,0,60.84-21.4,64.62-52.87h59.58c-1.68,26.43-13.01,52.03-33.15,70.91c-20.56,19.3-49.51,31.89-91.05,31.89
					C3216.42,731.75,3156.42,666.72,3156.42,576.51z"/>
				<path class="st0" d="M3443.41,617.62c0-63.78,43.22-113.29,106.16-113.29c69.23,0,106.16,52.87,106.16,129.65h-156.09
					c4.2,33.15,22.66,53.71,54.97,53.71c22.24,0,35.25-10.07,41.54-26.43h56.22c-7.97,38.18-41.96,70.49-97.34,70.49
					C3483.69,731.75,3443.41,681.82,3443.41,617.62z M3500.47,594.55h95.67c-1.68-27.27-19.72-46.15-45.73-46.15
					C3520.19,548.39,3505.5,566.44,3500.47,594.55z"/>
				<path class="st0" d="M3737.95,539.58h1.26c14.69-23.08,34.41-35.25,63.78-35.25c44.48,0,74.27,33.57,74.27,80.56v140.56h-57.06
					V593.29c0-23.08-13.43-39.44-37.34-39.44c-25.17,0-43.64,20.14-43.64,49.51v122.1h-57.06V510.21h55.8V539.58z"/>
				<path class="st0" d="M3895.71,510.21h29.79v-67.13h55.8v67.13h36.92v37.76h-36.92V662.1c0,15.94,8.81,21.4,21.4,21.4
					c7.13,0,16.78-0.42,16.78-0.42v41.96c0,0-13.01,0.84-35.67,0.84c-27.69,0-58.32-10.91-58.32-51.61v-126.3h-29.79V510.21z"/>
				<path class="st0" d="M4035.01,617.62c0-63.78,43.22-113.29,106.16-113.29c69.23,0,106.16,52.87,106.16,129.65h-156.09
					c4.2,33.15,22.66,53.71,54.97,53.71c22.24,0,35.25-10.07,41.54-26.43h56.22c-7.97,38.18-41.96,70.49-97.34,70.49
					C4075.29,731.75,4035.01,681.82,4035.01,617.62z M4092.07,594.55h95.67c-1.68-27.27-19.72-46.15-45.73-46.15
					C4111.79,548.39,4097.11,566.44,4092.07,594.55z"/>
				<path class="st0" d="M4328.71,544.62h1.26c13.01-24.34,27.69-36.92,52.87-36.92c6.29,0,10.07,0.42,13.43,1.68v49.93h-1.26
					c-37.34-3.78-64.2,15.94-64.2,61.26v104.9h-57.06V510.21h54.97V544.62z"/>
			</g>
		</g>
		<g>
			<path class="st0" d="M1520.08,5.46h131.75c34.83,0,60.84,10.07,78.46,28.11c16.78,17.2,26.85,40.7,26.85,68.39
				c0,56.64-37.34,94.83-100.28,94.83h-73.85v108.67h-62.94V5.46z M1583.02,147.27h62.94c31.89,0,48.67-17.62,48.67-44.9
				c0-28.11-17.62-44.06-47.83-44.06h-63.78V147.27z"/>
			<path class="st0" d="M1783.57,5.46h57.06v300h-57.06V5.46z"/>
			<path class="st0" d="M2007.21,281.54h-0.84c-10.91,16.36-26.43,28.95-63.36,28.95c-44.06,0-75.11-23.08-75.11-65.88
				c0-47.41,38.6-62.52,86.44-69.23c35.66-5.04,52.03-7.97,52.03-24.34c0-15.52-12.17-25.59-36.08-25.59
				c-26.85,0-39.86,9.65-41.54,30.21h-50.77c1.68-37.76,29.79-70.91,92.73-70.91c64.62,0,90.63,28.95,90.63,79.3v109.51
				c0,16.36,2.52,26.01,7.55,29.79v2.1h-54.97C2010.56,301.26,2008.47,291.19,2007.21,281.54z M2007.63,229.51v-32.31
				c-10.07,5.88-25.59,9.23-39.86,12.59c-29.79,6.71-44.48,13.43-44.48,33.57c0,20.14,13.43,27.27,33.57,27.27
				C1989.58,270.63,2007.63,250.49,2007.63,229.51z"/>
			<path class="st0" d="M2083.98,235.81h52.87c3.78,24.76,21.4,35.67,46.99,35.67c25.17,0,39.44-9.65,39.44-24.76
				c0-20.56-27.27-22.66-56.64-28.53c-38.6-7.55-76.36-18.04-76.36-65.04c0-46.57,38.6-68.81,87.69-68.81
				c56.64,0,88.11,28.11,92.31,71.33h-51.61c-2.52-23.08-17.2-31.47-41.54-31.47c-22.24,0-36.92,8.39-36.92,23.92
				c0,18.46,28.53,20.14,59.16,26.43c36.08,7.55,75.95,17.62,75.95,67.97c0,43.22-36.92,69.23-90.63,69.23
				C2122.17,311.75,2087.34,281.54,2083.98,235.81z"/>
			<path class="st0" d="M2300.9,90.21h54.97v28.95h1.26c11.75-19.72,32.73-34.83,62.52-34.83c27.27,0,49.09,15.11,59.58,37.76h0.84
				c14.69-23.5,37.34-37.76,64.62-37.76c45.32,0,70.91,29.37,70.91,76.36v144.76h-57.06V170.35c0-24.34-12.17-36.92-33.15-36.92
				c-23.92,0-38.6,18.46-38.6,46.99v125.04h-57.06V170.35c0-24.34-12.17-36.92-33.15-36.92c-23.08,0-38.6,18.46-38.6,46.99v125.04
				h-57.06V90.21z"/>
			<path class="st0" d="M2779.64,281.54h-0.84c-10.91,16.36-26.43,28.95-63.36,28.95c-44.06,0-75.11-23.08-75.11-65.88
				c0-47.41,38.6-62.52,86.44-69.23c35.66-5.04,52.03-7.97,52.03-24.34c0-15.52-12.17-25.59-36.08-25.59
				c-26.85,0-39.86,9.65-41.54,30.21h-50.77c1.68-37.76,29.79-70.91,92.73-70.91c64.62,0,90.63,28.95,90.63,79.3v109.51
				c0,16.36,2.52,26.01,7.55,29.79v2.1h-54.97C2783,301.26,2780.9,291.19,2779.64,281.54z M2780.06,229.51v-32.31
				c-10.07,5.88-25.59,9.23-39.86,12.59c-29.79,6.71-44.48,13.43-44.48,33.57c0,20.14,13.43,27.27,33.57,27.27
				C2762.02,270.63,2780.06,250.49,2780.06,229.51z"/>
			<path class="st0" d="M2931.52,212.73h59.58c4.2,36.08,24.76,50.35,67.55,50.35c31.05,0,58.32-10.91,58.32-38.6
				c0-29.37-28.53-35.25-74.27-45.73c-53.71-12.17-102.8-26.43-102.8-88.95c0-59.16,48.25-89.79,114.97-89.79
				c67.55,0,111.19,33.15,115.81,93.57h-58.32c-3.36-30.21-26.85-45.32-57.9-45.32c-32.73,0-54.13,13.85-54.13,35.25
				c0,24.34,20.98,31.47,65.46,41.12c61.68,13.43,112.03,28.11,112.03,92.73c0,60.84-49.09,94.83-116.64,94.83
				C2979.78,312.17,2933.62,276.09,2931.52,212.73z"/>
			<path class="st0" d="M3199.22,198.04c0-64.2,41.96-113.71,107.41-113.71c55.81,0,90.21,32.31,97.76,78.88h-55.8
				c-3.78-18.88-18.46-33.15-39.44-33.15c-34.41,0-52.03,26.43-52.03,67.97c0,40.7,16.36,67.97,51.19,67.97
				c23.08,0,39.44-12.17,43.22-36.5h54.97c-3.78,45.73-39.44,82.24-96.92,82.24C3241.59,311.75,3199.22,262.24,3199.22,198.04z"/>
			<path class="st0" d="M3431.24,5.46h57.06v51.19h-57.06V5.46z M3431.24,90.21h57.06v215.25h-57.06V90.21z"/>
			<path class="st0" d="M3514.74,197.62c0-63.78,43.22-113.29,106.16-113.29c69.23,0,106.16,52.87,106.16,129.65h-156.09
				c4.2,33.15,22.66,53.71,54.97,53.71c22.24,0,35.25-10.07,41.54-26.43h56.22c-7.97,38.18-41.96,70.49-97.34,70.49
				C3555.02,311.75,3514.74,261.82,3514.74,197.62z M3571.8,174.55h95.67c-1.68-27.27-19.72-46.15-45.73-46.15
				C3591.53,128.39,3576.84,146.44,3571.8,174.55z"/>
			<path class="st0" d="M3809.28,119.58h1.26c14.69-23.08,34.41-35.25,63.78-35.25c44.48,0,74.27,33.57,74.27,80.56v140.56h-57.06
				V173.29c0-23.08-13.43-39.44-37.34-39.44c-25.17,0-43.64,20.14-43.64,49.51v122.1h-57.06V90.21h55.8V119.58z"/>
			<path class="st0" d="M3973.34,198.04c0-64.2,41.96-113.71,107.41-113.71c55.81,0,90.21,32.31,97.76,78.88h-55.8
				c-3.78-18.88-18.46-33.15-39.44-33.15c-34.41,0-52.03,26.43-52.03,67.97c0,40.7,16.36,67.97,51.19,67.97
				c23.08,0,39.44-12.17,43.22-36.5h54.97c-3.78,45.73-39.44,82.24-96.92,82.24C4015.71,311.75,3973.34,262.24,3973.34,198.04z"/>
			<path class="st0" d="M4194.87,197.62c0-63.78,43.22-113.29,106.16-113.29c69.23,0,106.16,52.87,106.16,129.65H4251.1
				c4.2,33.15,22.66,53.71,54.97,53.71c22.24,0,35.25-10.07,41.54-26.43h56.22c-7.97,38.18-41.96,70.49-97.34,70.49
				C4235.15,311.75,4194.87,261.82,4194.87,197.62z M4251.94,174.55h95.67c-1.68-27.27-19.72-46.15-45.73-46.15
				C4271.66,128.39,4256.97,146.44,4251.94,174.55z"/>
		</g>
	</g>
</g>
<g id="Guides">
</g>
</svg>
